<?xml version="1.0" encoding="utf-8"?>
<!-- Generator: Adobe Illustrator 27.0.0, SVG Export Plug-In . SVG Version: 6.00 Build 0)  -->
<svg version="1.1" id="Layer_1" xmlns="http://www.w3.org/2000/svg" xmlns:xlink="http://www.w3.org/1999/xlink" x="0px" y="0px"
	 viewBox="0 0 1440 320" style="enable-background:new 0 0 1440 320;" xml:space="preserve">
<style type="text/css">
	.st0{fill:#1C1C1C;fill-opacity:0.7;}
</style>
<path class="st0" d="M0,32l30,37.3C60,107,120,181,180,186.7c60,5.3,120-58.7,180-48C420,149,480,235,540,256s120-21,180-53.3
	C780,171,840,149,900,128s120-43,180-21.3c60,21.3,120,85.3,180,90.6c60,5.7,120-48.3,150-74.6l30-26.7v224h-30c-30,0-90,0-150,0
	s-120,0-180,0s-120,0-180,0s-120,0-180,0s-120,0-180,0s-120,0-180,0s-120,0-180,0s-120,0-150,0H0V32z"/>
<path class="st0" d="M0,32l30,37.3C60,107,120,181,180,186.7c60,5.3,120-58.7,180-48C420,149,480,235,540,256s120-21,180-53.3
	C780,171,840,149,900,128s120-43,180-21.3c60,21.3,120,85.3,180,90.6c60,5.7,120-48.3,150-74.6l30-26.7v224h-30c-30,0-90,0-150,0
	s-120,0-180,0s-120,0-180,0s-120,0-180,0s-120,0-180,0s-120,0-180,0s-120,0-180,0s-120,0-150,0H0V32z"/>
</svg>
